# xmcd
#
# Track frame offsets:
#	150
#	16806
#	38061
#	57575
#	76601
#	93899
#	113963
#	132341
#	147396
#	163559
#	178416
#	196021
#	213602
#	226759
#	248613
#	270196
#
# Disc length: 3878 seconds
# Revision: 2
# Processed by: cddbd v1.5.2PL0 Copyright (c) Steve Scherf et al.
# Submitted via: dBpowerAMP V12.0
#
DISCID=cd0f2410
DTITLE=Roy Roberts - Blues and Soul Review, Vol.1
DYEAR=2007
DGENRE=Blues
TTITLE0=If You Can't Put It Out
TTITLE1=Three Old Blues Men
TTITLE2=Gonna Put My Foot Down
TTITLE3=Country Boy
TTITLE4=I Want to Love You
TTITLE5=It's Good to Go
TTITLE6=Don't Let This Love Slip Away
TTITLE7=I Know a Hoochie Mama
TTITLE8=Give Me a Chance
TTITLE9=You Put That Dog Ahead of Me
TTITLE10=Daylight with a Flashlight
TTITLE11=You Let the Fire Go Out
TTITLE12=Mr D.J
TTITLE13=I Truly Love You
TTITLE14=Dutch Guy Playing the Blues
TTITLE15=Let's Go to the Beach
EXTD=
EXTT0=
EXTT1=
EXTT2=
EXTT3=
EXTT4=
EXTT5=
EXTT6=
EXTT7=
EXTT8=
EXTT9=
EXTT10=
EXTT11=
EXTT12=
EXTT13=
EXTT14=
EXTT15=
PLAYORDER=
